Jalsaghar aka The Music Room (Satyajit Ray, 1958)
 
http://www.imdb.com/title/tt0051792

Biswambhar Roy is a zamindar (landlord) and the last of his kind. With the title, he has none of the perquisites, inheriting diminishing lands that are being eroded by the neighbouring river. But he must maintain the lifestyle of his heritage. This ostentation is most apparent in the grandest room of his mansion, the music room. Here he inports the finest musicians and dancers to perform, and invites the area's most important commoners. His wife's entreaties to control spending are ignored, and the puberty party he throws for his son bring him down to the last few sacks of family jewels. Then, struck by tragedy, he locks the music room and slips into lethargy - until a final grand soiree consumes the last of his funds.


General
Unique ID                                : 253528265023073922467250068982916533970 (0xBEBBC48A52CCA0D38607C4F068C14ED2)
Complete name                            : The.Music.Room.1958.BluRay.Criterion.Collection.720p.AC3.x264-CHD.mkv
Format                                   : Matroska
Format version                           : Version 2
File size                                : 6.54 GiB
Duration                                 : 1h 38mn
Overall bit rate                         : 9 471 Kbps
Encoded date                             : UTC 2011-07-23 11:36:19
Writing application                      : mkvmerge v3.2.0 ('Beginnings') 编译于 Feb 12 2010 16:46:17
Writing library                          : libebml v0.7.9 + libmatroska v0.8.1

Video
ID                                       : 1
Format                                   : AVC
Format/Info                              : Advanced Video Codec
Format profile                           : High@L4.1
Format settings, CABAC                   : Yes
Format settings, ReFrames                : 9 frames
Codec ID                                 : V_MPEG4/ISO/AVC
Duration                                 : 1h 38mn
Bit rate                                 : 9 084 Kbps
Width                                    : 1 280 pixels
Height                                   : 960 pixels
Display aspect ratio                     : 4:3
Frame rate                               : 23.976 fps
Color space                              : YUV
Chroma subsampling                       : 4:2:0
Bit depth                                : 8 bits
Scan type                                : Progressive
Bits/(Pixel*Frame)                       : 0.308
Stream size                              : 6.15 GiB (94%)
Title                                    : The.Music.Room.1958.BluRay.Criterion.Collection.720p.AC3.x264-CHD
Writing library                          : x264 core 102 r1666 d058f37
Encoding settings                        : cabac=1 / ref=9 / deblock=1:-3:-3 / analyse=0x3:0x113 / me=umh / subme=9 / psy=1 / psy_rd=1.05:0.10 / mixed_ref=1 / me_range=32 / chroma_me=1 / trellis=2 / 8x8dct=1 / cqm=2 / deadzone=21,11 / fast_pskip=0 / chroma_qp_offset=-2 / threads=6 / sliced_threads=0 / nr=0 / decimate=1 / interlaced=0 / constrained_intra=0 / bframes=6 / b_pyramid=2 / b_adapt=2 / b_bias=0 / direct=3 / weightb=1 / open_gop=0 / weightp=2 / keyint=250 / keyint_min=25 / scenecut=40 / intra_refresh=0 / rc_lookahead=40 / rc=2pass / mbtree=1 / bitrate=9084 / ratetol=1.0 / qcomp=0.60 / qpmin=10 / qpmax=51 / qpstep=4 / cplxblur=20.0 / qblur=0.5 / vbv_maxrate=50000 / vbv_bufsize=50000 / ip_ratio=1.40 / aq=1:0.80 / nal_hrd=none
Language                                 : Bengali
Default                                  : No
Forced                                   : No

Audio
ID                                       : 2
Format                                   : AC-3
Format/Info                              : Audio Coding 3
Mode extension                           : CM (complete main)
Codec ID                                 : A_AC3
Duration                                 : 1h 38mn
Bit rate mode                            : Constant
Bit rate                                 : 384 Kbps
Channel(s)                               : 1 channel
Channel positions                        : Front: C
Sampling rate                            : 48.0 KHz
Bit depth                                : 16 bits
Compression mode                         : Lossy
Stream size                              : 272 MiB (4%)
Title                                    : Bengali AC3 448Kbps (from LPCM)
Language                                 : Bengali
Default                                  : Yes
Forced                                   : No